<svg width="678" height="689" viewBox="0 0 678 689" fill="none" xmlns="http://www.w3.org/2000/svg">
<mask id="path-1-inside-1_3_21-big" fill="white">
<path fill-rule="evenodd" clip-rule="evenodd" d="M337.328 419.998C325.824 426.639 313.678 432.292 301.005 436.839C299.03 425.858 298 414.549 298 403C298 401.422 298.019 399.848 298.057 398.28C312.29 403.547 325.506 410.911 337.328 419.998ZM449.854 216.83C449.951 219.542 450 222.265 450 225C450 308.353 404.676 381.119 337.328 419.998C373.005 447.42 396 490.524 396 539C396 548.825 395.055 558.429 393.252 567.727C345.658 540.292 311.069 492.823 301.005 436.839C277.263 445.359 251.673 450 225 450C194.782 450 165.955 444.043 139.63 433.239C166.798 405.915 204.424 389 246 389C264.303 389 281.841 392.278 298.057 398.28C300.246 308.516 364.69 234.187 449.854 216.83ZM449.854 216.83C445.554 96.3506 346.529 0 225 0C100.736 0 0 100.736 0 225C0 319.046 57.6996 399.615 139.63 433.239C112.664 460.359 96 497.734 96 539C96 621.843 163.157 689 246 689C319.018 689 379.85 636.827 393.252 567.727C421.142 583.803 453.497 593 488 593C592.934 593 678 507.934 678 403C678 298.066 592.934 213 488 213C474.935 213 462.178 214.319 449.854 216.83Z"/>
</mask>
<path fill-rule="evenodd" clip-rule="evenodd" d="M337.328 419.998C325.824 426.639 313.678 432.292 301.005 436.839C299.03 425.858 298 414.549 298 403C298 401.422 298.019 399.848 298.057 398.28C312.29 403.547 325.506 410.911 337.328 419.998ZM449.854 216.83C449.951 219.542 450 222.265 450 225C450 308.353 404.676 381.119 337.328 419.998C373.005 447.42 396 490.524 396 539C396 548.825 395.055 558.429 393.252 567.727C345.658 540.292 311.069 492.823 301.005 436.839C277.263 445.359 251.673 450 225 450C194.782 450 165.955 444.043 139.63 433.239C166.798 405.915 204.424 389 246 389C264.303 389 281.841 392.278 298.057 398.28C300.246 308.516 364.69 234.187 449.854 216.83ZM449.854 216.83C445.554 96.3506 346.529 0 225 0C100.736 0 0 100.736 0 225C0 319.046 57.6996 399.615 139.63 433.239C112.664 460.359 96 497.734 96 539C96 621.843 163.157 689 246 689C319.018 689 379.85 636.827 393.252 567.727C421.142 583.803 453.497 593 488 593C592.934 593 678 507.934 678 403C678 298.066 592.934 213 488 213C474.935 213 462.178 214.319 449.854 216.83Z" fill="white"/>
<path d="M302.693 441.546C315.65 436.896 328.068 431.117 339.828 424.328L334.828 415.668C323.58 422.161 311.705 427.688 299.316 432.133L302.693 441.546ZM293 403C293 414.847 294.057 426.452 296.083 437.724L305.926 435.955C304.004 425.264 303 414.251 303 403H293ZM293.059 398.158C293.02 399.767 293 401.381 293 403H303C303 401.463 303.019 399.93 303.056 398.401L293.059 398.158ZM296.322 402.969C310.077 408.059 322.851 415.177 334.281 423.963L340.375 416.034C328.16 406.645 314.504 399.034 299.793 393.59L296.322 402.969ZM455 225C455 222.206 454.95 219.423 454.851 216.652L444.858 217.009C444.952 219.661 445 222.325 445 225H455ZM339.828 424.328C408.659 384.593 455 310.211 455 225H445C445 306.494 400.692 377.645 334.828 415.668L339.828 424.328ZM334.281 423.963C368.78 450.478 391 492.143 391 539H401C401 488.906 377.23 444.361 340.375 416.034L334.281 423.963ZM391 539C391 548.504 390.086 557.789 388.344 566.775L398.161 568.679C400.024 559.069 401 549.146 401 539H391ZM395.749 563.395C349.397 536.677 315.722 490.451 305.926 435.955L296.083 437.724C306.415 495.196 341.918 543.908 390.755 572.059L395.749 563.395ZM299.316 432.133C276.108 440.461 251.09 445 225 445V455C252.257 455 278.417 450.256 302.693 441.546L299.316 432.133ZM225 445C195.444 445 167.261 439.174 141.528 428.614L137.731 437.865C164.649 448.911 194.119 455 225 455V445ZM143.175 436.765C169.444 410.346 205.808 394 246 394V384C203.039 384 164.152 401.485 136.084 429.714L143.175 436.765ZM246 394C263.702 394 280.653 397.17 296.322 402.969L299.793 393.59C283.029 387.387 264.904 384 246 384V394ZM448.856 211.931C361.448 229.745 295.306 306.023 293.059 398.158L303.056 398.401C305.187 311.008 367.933 238.629 450.853 221.73L448.856 211.931ZM225 5C343.827 5 440.653 99.2095 444.858 217.009L454.851 216.652C450.456 93.4916 349.231 -5 225 -5V5ZM5 225C5 103.497 103.497 5 225 5V-5C97.9745 -5 -5 97.9745 -5 225H5ZM141.528 428.614C61.4091 395.733 5 316.948 5 225H-5C-5 321.144 53.99 403.498 137.731 437.865L141.528 428.614ZM101 539C101 499.108 117.103 462.986 143.175 436.765L136.084 429.714C108.225 457.733 91 496.36 91 539H101ZM246 684C165.919 684 101 619.081 101 539H91C91 624.604 160.396 694 246 694V684ZM388.344 566.775C375.389 633.57 316.578 684 246 684V694C321.457 694 384.311 640.085 398.161 568.679L388.344 566.775ZM488 588C454.396 588 422.899 579.045 395.749 563.395L390.755 572.059C419.384 588.561 452.597 598 488 598V588ZM673 403C673 505.173 590.173 588 488 588V598C595.695 598 683 510.696 683 403H673ZM488 218C590.173 218 673 300.827 673 403H683C683 295.304 595.695 208 488 208V218ZM450.853 221.73C462.849 219.285 475.272 218 488 218V208C474.598 208 461.506 209.353 448.856 211.931L450.853 221.73Z" fill="white" mask="url(#path-1-inside-1_3_21-big)"/>
</svg>