<svg width="31" height="30" viewBox="0 0 31 30" fill="none" xmlns="http://www.w3.org/2000/svg">
<path fill-rule="evenodd" clip-rule="evenodd" d="M21.625 16.1505L19.905 15L21.625 13.8495V16.1505ZM15.6875 21.0275V17.821L18.6685 15.8275L21.0745 17.4365L15.6875 21.0275ZM15 16.6265L12.5685 15L15 13.3735L17.432 15L15 16.6265ZM14.3125 21.0275L8.9255 17.4365L11.332 15.8275L14.3125 17.821V21.0275ZM8.375 13.8495L10.0955 15L8.375 16.1505V13.8495ZM14.3125 8.9725V12.179L11.332 14.173L8.9255 12.5635L14.3125 8.9725ZM15.6875 8.9725L21.0745 12.5635L18.6685 14.173L15.6875 12.179V8.9725ZM22.994 12.473C22.9925 12.4625 22.99 12.453 22.9885 12.443C22.985 12.4235 22.9815 12.404 22.9765 12.3855C22.9735 12.374 22.969 12.363 22.9655 12.352C22.96 12.335 22.9545 12.3185 22.948 12.302C22.9435 12.2905 22.938 12.279 22.9325 12.2685C22.9255 12.2525 22.918 12.2375 22.909 12.223C22.903 12.212 22.896 12.2015 22.8895 12.191C22.8805 12.1765 22.871 12.1625 22.8605 12.149C22.853 12.139 22.845 12.129 22.837 12.1195C22.826 12.1065 22.8145 12.094 22.8025 12.082C22.7935 12.073 22.785 12.0635 22.7755 12.0555C22.7625 12.044 22.7495 12.033 22.7365 12.0225C22.726 12.0145 22.716 12.0065 22.7055 11.999C22.7015 11.9965 22.698 11.993 22.694 11.9905L15.3815 7.1155C15.1505 6.9615 14.85 6.9615 14.6185 7.1155L7.3065 11.9905C7.3025 11.993 7.299 11.9965 7.295 11.999C7.284 12.0065 7.274 12.0145 7.264 12.0225C7.2505 12.033 7.2375 12.044 7.225 12.0555C7.2155 12.0635 7.2065 12.073 7.1975 12.082C7.1855 12.094 7.174 12.1065 7.1635 12.1195C7.155 12.129 7.147 12.139 7.1395 12.149C7.1295 12.1625 7.12 12.1765 7.111 12.191C7.104 12.2015 7.0975 12.212 7.091 12.223C7.0825 12.2375 7.075 12.2525 7.0675 12.2685C7.0625 12.279 7.057 12.2905 7.0525 12.302C7.0455 12.3185 7.04 12.335 7.0345 12.352C7.031 12.363 7.027 12.374 7.024 12.3855C7.019 12.404 7.0155 12.4235 7.012 12.443C7.01 12.453 7.0075 12.4625 7.0065 12.473C7.0025 12.502 7 12.532 7 12.5625V17.4375C7 17.4675 7.0025 17.4975 7.0065 17.5275C7.0075 17.537 7.01 17.547 7.012 17.557C7.0155 17.5765 7.019 17.5955 7.024 17.6145C7.027 17.626 7.031 17.637 7.0345 17.648C7.04 17.6645 7.0455 17.6815 7.0525 17.6985C7.057 17.7095 7.0625 17.7205 7.0675 17.7315C7.075 17.747 7.0825 17.762 7.091 17.7775C7.0975 17.788 7.104 17.7985 7.111 17.809C7.12 17.8235 7.1295 17.837 7.1395 17.8505C7.147 17.861 7.155 17.871 7.1635 17.8805C7.174 17.893 7.1855 17.906 7.1975 17.9175C7.2065 17.927 7.2155 17.936 7.225 17.9445C7.2375 17.956 7.2505 17.967 7.264 17.9775C7.274 17.9855 7.284 17.9935 7.295 18.001C7.299 18.0035 7.3025 18.007 7.3065 18.0095L14.6185 22.8845C14.734 22.9615 14.867 23 15 23C15.133 23 15.266 22.9615 15.3815 22.8845L22.694 18.0095C22.698 18.007 22.7015 18.0035 22.7055 18.001C22.716 17.9935 22.726 17.9855 22.7365 17.9775C22.7495 17.967 22.7625 17.956 22.7755 17.9445C22.785 17.936 22.7935 17.927 22.8025 17.9175C22.8145 17.906 22.826 17.893 22.837 17.8805C22.845 17.871 22.853 17.861 22.8605 17.8505C22.871 17.837 22.8805 17.8235 22.8895 17.809C22.896 17.7985 22.903 17.788 22.909 17.7775C22.918 17.762 22.9255 17.747 22.9325 17.7315C22.938 17.7205 22.9435 17.7095 22.948 17.6985C22.9545 17.6815 22.96 17.6645 22.9655 17.648C22.969 17.637 22.9735 17.626 22.9765 17.6145C22.9815 17.5955 22.985 17.5765 22.9885 17.557C22.99 17.547 22.9925 17.537 22.994 17.5275C22.998 17.4975 23 17.4675 23 17.4375V12.5625C23 12.532 22.998 12.502 22.994 12.473Z" fill="white"/>
</svg>