<svg width="31" height="30" viewBox="0 0 31 30" fill="none" xmlns="http://www.w3.org/2000/svg">
<path d="M7.66747 9C7.30066 8.99997 6.99996 9.30346 7 9.67496V20.3236C6.99986 20.6952 7.3002 21 7.66747 21H22.6961C23.0635 21 23.3638 20.6952 23.3636 20.3236V9.67496C23.3636 9.30346 23.063 8.99997 22.6961 9H7.66747ZM9.44654 10.6177H20.9129L15.1804 15.6876L9.44654 10.6177ZM22.0287 11.4251V18.9152L17.8365 15.1325L22.0287 11.4251ZM8.33498 11.4293L12.5446 15.1529L8.33498 18.9518V11.4293ZM16.8237 16.0279L20.812 19.6275H9.59271L13.558 16.0491L14.7398 17.0946C14.9905 17.3161 15.3676 17.3161 15.6182 17.0946L16.8237 16.0279Z" fill="white"/>
</svg>