<svg width="362" height="100" viewBox="0 0 362 100" fill="none" xmlns="http://www.w3.org/2000/svg">
<path d="M87.3701 0.275879V77.0351L97.2284 77.0728V40.5369H121.046V30.8667H97.2284V9.94604H128.233V0.275879H87.3701ZM146.031 15.8535C149.605 15.8535 152.465 12.9562 152.465 9.41926C152.465 5.88231 149.568 2.98503 146.031 2.98503C142.456 2.98503 139.597 5.88231 139.597 9.41926C139.597 12.9562 142.494 15.8535 146.031 15.8535ZM141.026 25.5236V77.0351H150.885V25.5236H141.026Z" fill="white"/>
<path fill-rule="evenodd" clip-rule="evenodd" d="M187.496 24.0186C174.364 24.0186 165.221 35.1185 165.221 48.288C165.221 61.4575 174.364 72.5575 187.496 72.5575C193.516 72.5575 198.445 70.2246 202.057 66.4619V73.2724C202.057 81.8138 195.36 88.9253 186.593 88.9253C183.432 88.9253 180.309 87.7212 177.826 85.9904L172.859 94.5693C176.81 97.128 181.513 98.5954 186.555 98.5954C200.552 98.5954 211.878 87.2697 211.878 73.2724V25.5236H202.057V30.1141C198.445 26.3514 193.516 24.0186 187.496 24.0186ZM175.116 48.288C175.116 40.1229 181.363 33.6887 188.587 33.6887C195.811 33.6887 202.057 40.1229 202.057 48.288C202.057 56.4531 195.811 62.8873 188.587 62.8873C181.363 62.8873 175.116 56.4531 175.116 48.288Z" fill="white"/>
<path d="M247.511 33.6887C241.679 33.6887 236.938 38.6555 236.938 44.4877V77.0351H227.079V25.5236H236.938V30.227C239.835 26.5019 244.087 24.0186 249.656 24.0186C256.579 24.0186 261.885 27.4426 264.97 32.7104C268.394 27.6308 273.963 24.0186 280.698 24.0186C291.949 24.0186 298.947 33.0867 298.985 44.2996V77.0351H289.127V44.4501C289.127 38.6179 284.386 33.6511 278.553 33.6511C272.721 33.6511 267.98 38.6179 267.98 44.4501V77.0351H258.122V44.4501C258.084 38.6179 253.343 33.6887 247.511 33.6887Z" fill="white"/>
<path fill-rule="evenodd" clip-rule="evenodd" d="M351.587 31.3558C347.185 26.803 341.165 24.0186 334.204 24.0186C319.529 24.0186 309.069 36.4731 309.069 51.2982C309.069 66.1233 319.492 78.5778 334.204 78.5778C341.165 78.5778 347.185 75.7558 351.587 71.2406V77.0351H361.446V25.5236H351.587V31.3558ZM318.965 51.2982C318.965 41.4775 326.49 33.6887 335.295 33.6887C344.062 33.6887 351.625 41.4399 351.625 51.2982C351.625 61.1189 344.1 68.9077 335.295 68.9077C326.49 68.87 318.965 61.1189 318.965 51.2982Z" fill="white"/>
<path d="M33.1494 50.0188C33.1494 40.8755 40.5619 33.4253 49.743 33.4253C58.8863 33.4253 66.3365 40.8378 66.3365 50.0188C66.3365 59.1622 58.924 66.6124 49.743 66.6124C40.5996 66.6124 33.1494 59.1622 33.1494 50.0188Z" fill="#2F2825"/>
<path d="M0 83.1683C0 74.0249 7.41254 66.5747 16.5935 66.5747H33.1871V83.1683C33.1871 92.3116 25.7746 99.7618 16.5935 99.7618C7.41254 99.7618 0 92.3493 0 83.1683Z" fill="#2F2825"/>
<path d="M33.1494 0.275908V33.4254H49.743C58.8863 33.4254 66.3365 26.0128 66.3365 16.8318C66.3365 7.68844 58.924 0.238281 49.743 0.238281H33.1494V0.275908Z" fill="#1B1817"/>
<path d="M0 16.8694C0 26.0128 7.41254 33.463 16.5935 33.463H33.1871V0.275879H16.5935C7.41254 0.275879 0 7.68841 0 16.8694Z" fill="#2F2825"/>
<path d="M0 50.0188C0 59.1622 7.41254 66.6124 16.5935 66.6124H33.1871V33.4253H16.5935C7.41254 33.4253 0 40.8755 0 50.0188Z" fill="#1B1817"/>
</svg>