<svg width="31" height="30" viewBox="0 0 31 30" fill="none" xmlns="http://www.w3.org/2000/svg">
<path fill-rule="evenodd" clip-rule="evenodd" d="M17.7485 19.2652V19.2652C17.8251 19.3196 17.8186 19.3906 17.8123 19.4595C17.8106 19.4784 17.8089 19.497 17.8089 19.5152V22.9269C17.8089 22.9385 17.8112 22.951 17.8135 22.9635C17.8158 22.976 17.8181 22.9885 17.8181 23H12.8968C12.9154 22.3307 12.9154 21.6576 12.8968 20.9884C12.8823 20.9885 12.8687 20.9894 12.855 20.9903C12.8399 20.9912 12.8248 20.9922 12.8086 20.9922L12.8084 20.9921C12.7667 21.0305 12.7203 21.0497 12.6555 21.0267L12.6554 21.0268C12.0797 21.0768 11.4993 21.1153 10.9283 20.996C9.91613 20.7845 9.19185 20.2883 8.74615 19.4998C8.45829 18.9844 8.07758 18.5074 7.63652 18.069C7.56553 17.9984 7.47284 17.9498 7.37933 17.9008C7.28937 17.8536 7.19866 17.8061 7.12581 17.7382C7.11217 17.725 7.09631 17.7125 7.08054 17.7001L7.08053 17.7001C7.03187 17.6618 6.98406 17.6241 7.0051 17.5689C7.02968 17.4909 7.12295 17.4847 7.20834 17.479H7.20834L7.2084 17.479L7.20845 17.479L7.2085 17.479L7.20855 17.479L7.20861 17.479C7.2199 17.4783 7.23105 17.4775 7.24188 17.4766C8.17044 17.4112 8.82972 17.7766 9.28935 18.4074C9.71185 18.9844 10.2643 19.4113 11.0629 19.5844C11.6293 19.7075 12.1957 19.6806 12.7529 19.5383C12.8829 19.5037 12.9525 19.4575 12.9665 19.3267C13.0082 18.8498 13.1289 18.3882 13.5282 17.9843C13.4693 17.9755 13.4152 17.9666 13.3638 17.9582L13.3634 17.9581L13.3632 17.9581L13.363 17.958L13.3629 17.958L13.3629 17.958C13.2809 17.9446 13.2058 17.9322 13.1289 17.9228C12.1447 17.7997 11.23 17.5189 10.4361 17.0151C9.54935 16.4535 8.99686 15.7034 8.82507 14.7842C8.6765 13.9803 8.73222 13.1725 8.85757 12.3686C8.95507 11.7494 9.164 11.1609 9.70256 10.6993C9.89292 10.5378 9.90685 10.407 9.82328 10.2031C9.54006 9.51849 9.61899 8.82999 9.87435 8.14534C9.92077 8.01841 9.99042 7.97994 10.1576 8.01456C10.7843 8.14149 11.2672 8.44535 11.7036 8.8146C11.9172 8.99154 12.0982 9.19155 12.2747 9.39156C12.3257 9.44925 12.3629 9.48003 12.4511 9.42233C12.7854 9.20309 13.1893 9.13385 13.5932 9.08385C14.7632 8.94538 15.9378 8.94154 17.1078 9.08C17.4978 9.12616 17.8925 9.18386 18.2175 9.38771C18.3707 9.48387 18.431 9.43002 18.5146 9.33002C18.8257 8.95307 19.2064 8.62998 19.6521 8.36458C19.9353 8.19534 20.251 8.07995 20.5946 8.01071C20.7431 7.97994 20.8035 8.01456 20.8499 8.12611C21.1656 8.86461 21.2121 9.60311 20.8592 10.3416C20.8174 10.4339 20.7896 10.4993 20.8917 10.5801C21.4628 11.0263 21.7321 11.5955 21.8435 12.2225C21.9781 12.9841 22.0571 13.7495 21.9503 14.5226C21.7738 15.8227 20.9753 16.7689 19.5917 17.3882C19.5831 17.3875 19.5747 17.3873 19.5667 17.3876C19.5734 17.3875 19.5801 17.3877 19.5869 17.3882C19.5732 17.4339 19.5413 17.4644 19.4778 17.4392C19.4415 17.4542 19.4053 17.4692 19.3735 17.4805L19.3633 17.4809C19.2819 17.5518 19.1873 17.5972 19.0666 17.5922C19.0482 17.5979 19.0287 17.6026 19.0091 17.6074L19.0091 17.6074C18.9893 17.6122 18.9696 17.617 18.951 17.6228C18.9253 17.6175 18.9035 17.6187 18.8853 17.6253C18.9015 17.6218 18.9202 17.6222 18.9417 17.6267C18.9231 17.669 18.8906 17.6959 18.8256 17.6728C18.8261 17.672 18.8265 17.6712 18.827 17.6704C18.8176 17.6722 18.8077 17.6744 18.7978 17.6766L18.7978 17.6766L18.7978 17.6766L18.7978 17.6766L18.7978 17.6766L18.7978 17.6766C18.785 17.6795 18.7723 17.6824 18.7607 17.6843L18.734 17.6876C18.5572 17.7094 18.3817 17.7311 18.2314 17.8189C18.2198 17.8209 18.207 17.8228 18.1942 17.8247C18.1815 17.8266 18.1687 17.8286 18.1571 17.8305C18.0225 17.8266 17.8878 17.8343 17.7717 17.9036L17.6208 17.9209L17.47 17.9382C17.4484 17.9392 17.4262 17.9394 17.4038 17.9396C17.3442 17.9401 17.2838 17.9406 17.2332 17.9574C17.2095 17.966 17.1967 17.9757 17.1923 17.9855C17.1993 17.9783 17.2111 17.9713 17.2286 17.965C17.2792 17.9482 17.3397 17.9477 17.3992 17.9472H17.3992C17.4216 17.947 17.4438 17.9468 17.4654 17.9458C17.4424 17.9752 17.4025 17.9797 17.3631 17.9841C17.3175 17.9893 17.2724 17.9944 17.2547 18.0378L17.2564 18.0382L17.261 18.042L17.262 18.0506C17.3243 18.0626 17.3551 18.0973 17.3543 18.1486L17.3585 18.1497C17.3957 18.2113 17.4328 18.2728 17.47 18.3305L17.4716 18.3442C17.5528 18.3912 17.5621 18.4621 17.5703 18.5345C17.5738 18.5371 17.5775 18.5396 17.5814 18.5421L17.5872 18.5631L17.5953 18.5921C17.6 18.6084 17.6046 18.6248 17.6093 18.6421L17.6134 18.6623C17.6971 18.7443 17.73 18.8392 17.7016 18.9468L17.7067 18.9536L17.7068 18.9538C17.7114 18.9768 17.716 18.9998 17.7207 19.019L17.7172 19.0251L17.7152 19.029C17.7647 19.0611 17.7824 19.0996 17.747 19.1445L17.7485 19.1459C17.7439 19.1883 17.7439 19.2267 17.7485 19.2652ZM12.8069 20.9916C12.7637 20.9754 12.7228 20.9731 12.6897 20.9934C12.7217 20.9745 12.7608 20.9781 12.8069 20.9916ZM17.7485 19.2663C17.7456 19.3824 17.7427 19.4986 17.7409 19.6148C17.7448 19.4986 17.7485 19.3824 17.7485 19.2663ZM18.7046 17.6975C18.5347 17.718 18.3666 17.7383 18.222 17.8264C18.3729 17.838 18.4999 17.7881 18.6271 17.7381C18.6682 17.722 18.7093 17.7059 18.7513 17.6918L18.7046 17.6975ZM17.7623 17.9113C17.8784 17.8421 18.013 17.8383 18.1476 17.8383C18.0362 17.9152 17.9016 17.9229 17.7623 17.9113Z" fill="white"/>
</svg>