<svg width="31" height="30" viewBox="0 0 31 30" fill="none" xmlns="http://www.w3.org/2000/svg">
<path d="M15 8.44147C17.1361 8.44147 17.3891 8.4496 18.2327 8.48809C19.0126 8.52369 19.4362 8.65401 19.7182 8.76354C20.0916 8.90867 20.3581 9.08205 20.638 9.36198C20.9179 9.64191 21.0913 9.90844 21.2364 10.2818C21.346 10.5638 21.4763 10.9874 21.5119 11.7673C21.5504 12.6109 21.5585 12.8639 21.5585 15C21.5585 17.1361 21.5504 17.3891 21.5119 18.2327C21.4763 19.0127 21.346 19.4363 21.2364 19.7182C21.0913 20.0916 20.9179 20.3581 20.638 20.638C20.3581 20.918 20.0916 21.0914 19.7182 21.2365C19.4362 21.346 19.0126 21.4763 18.2327 21.5119C17.3892 21.5504 17.1362 21.5586 15 21.5586C12.8638 21.5586 12.6108 21.5504 11.7673 21.5119C10.9873 21.4763 10.5637 21.346 10.2818 21.2365C9.90841 21.0914 9.64188 20.918 9.36195 20.638C9.08202 20.3581 8.90863 20.0916 8.76354 19.7182C8.65398 19.4363 8.52366 19.0127 8.48806 18.2327C8.44957 17.3891 8.44144 17.1361 8.44144 15C8.44144 12.8639 8.44957 12.6109 8.48806 11.7673C8.52366 10.9874 8.65398 10.5638 8.76354 10.2818C8.90863 9.90844 9.08202 9.64191 9.36195 9.36198C9.64188 9.08205 9.90841 8.90867 10.2818 8.76354C10.5637 8.65401 10.9873 8.52369 11.7673 8.48809C12.6109 8.4496 12.8639 8.44147 15 8.44147ZM15 7C12.8273 7 12.5549 7.00921 11.7016 7.04814C10.8501 7.08701 10.2686 7.22223 9.75966 7.42001C9.23359 7.62445 8.78745 7.898 8.34271 8.34274C7.89797 8.78748 7.62442 9.23363 7.41997 9.7597C7.2222 10.2686 7.08698 10.8501 7.04811 11.7016C7.00918 12.5549 7 12.8273 7 15C7 17.1727 7.00918 17.4451 7.04811 18.2984C7.08698 19.1499 7.2222 19.7314 7.41997 20.2403C7.62442 20.7664 7.89797 21.2125 8.34271 21.6573C8.78745 22.102 9.23359 22.3756 9.75966 22.58C10.2686 22.7778 10.8501 22.913 11.7016 22.9519C12.5549 22.9908 12.8273 23 15 23C17.1727 23 17.4451 22.9908 18.2984 22.9519C19.1499 22.913 19.7314 22.7778 20.2403 22.58C20.7664 22.3756 21.2125 22.102 21.6573 21.6573C22.102 21.2125 22.3755 20.7664 22.58 20.2403C22.7778 19.7314 22.913 19.1499 22.9519 18.2984C22.9908 17.4451 23 17.1727 23 15C23 12.8273 22.9908 12.5549 22.9519 11.7016C22.913 10.8501 22.7778 10.2686 22.58 9.7597C22.3755 9.23363 22.102 8.78748 21.6573 8.34274C21.2125 7.898 20.7664 7.62445 20.2403 7.42001C19.7314 7.22223 19.1499 7.08701 18.2984 7.04814C17.4451 7.00921 17.1727 7 15 7ZM15 10.8919C12.7311 10.8919 10.8919 12.7312 10.8919 15C10.8919 17.2689 12.7311 19.1081 15 19.1081C17.2688 19.1081 19.1081 17.2689 19.1081 15C19.1081 12.7312 17.2688 10.8919 15 10.8919ZM15 17.6667C13.5272 17.6667 12.3333 16.4728 12.3333 15C12.3333 13.5273 13.5272 12.3333 15 12.3333C16.4727 12.3333 17.6667 13.5273 17.6667 15C17.6667 16.4728 16.4727 17.6667 15 17.6667ZM20.2304 10.7296C20.2304 11.2598 19.8006 11.6896 19.2704 11.6896C18.7402 11.6896 18.3104 11.2598 18.3104 10.7296C18.3104 10.1994 18.7402 9.7696 19.2704 9.7696C19.8006 9.7696 20.2304 10.1994 20.2304 10.7296Z" fill="white"/>
</svg>