<svg width="31" height="30" viewBox="0 0 31 30" fill="none" xmlns="http://www.w3.org/2000/svg">
<path fill-rule="evenodd" clip-rule="evenodd" d="M22 21H19.3289V16.4505C19.3289 15.2032 18.8549 14.5061 17.8677 14.5061C16.7937 14.5061 16.2325 15.2315 16.2325 16.4505V21H13.6583V12.3333H16.2325V13.5007C16.2325 13.5007 17.0065 12.0686 18.8456 12.0686C20.6839 12.0686 22 13.1911 22 15.5128V21ZM10.5873 11.1985C9.71051 11.1985 9 10.4824 9 9.59925C9 8.71609 9.71051 8 10.5873 8C11.4642 8 12.1743 8.71609 12.1743 9.59925C12.1743 10.4824 11.4642 11.1985 10.5873 11.1985ZM9.25814 21H11.9424V12.3333H9.25814V21Z" fill="white"/>
</svg>