<svg width="251" height="150" viewBox="0 0 251 150" fill="none" xmlns="http://www.w3.org/2000/svg">
<path d="M59.2042 39.4739H106.332V43.2017H63.5243V71.2582H103.779V74.986H63.5243V105.789H106.823V109.517H59.2042V39.4739ZM110.554 39.4739H115.561L137.751 70.2772L160.431 39.4739L191.28 0.34668L140.598 73.5145L166.714 109.517H161.511L137.751 76.7518L113.892 109.517H108.787L135.1 73.5145L110.554 39.4739ZM168.58 43.2017V39.4739H222.286V43.2017H197.544V109.517H193.224V43.2017H168.58Z" fill="white"/>
<path d="M0.245483 39.4741H5.64554L80.1092 150.367L49.3369 109.517L4.7619 44.7715L4.56553 109.517H0.245483V39.4741Z" fill="white"/>
<path d="M221.851 104.664C222.744 104.664 223.395 103.984 223.395 103.104C223.395 102.225 222.744 101.544 221.851 101.544C220.968 101.544 220.306 102.225 220.306 103.104C220.306 103.984 220.968 104.664 221.851 104.664ZM226.096 100.56C226.096 103.156 227.977 104.853 230.719 104.853C233.64 104.853 235.405 103.104 235.405 100.068V89.3772H233.052V100.057C233.052 101.743 232.2 102.643 230.698 102.643C229.353 102.643 228.439 101.806 228.407 100.56H226.096ZM238.484 100.424C238.652 103.125 240.911 104.853 244.273 104.853C247.867 104.853 250.115 103.041 250.115 100.151C250.115 97.8792 248.834 96.6228 245.723 95.9003L244.053 95.492C242.077 95.0313 241.279 94.4135 241.279 93.3351C241.279 91.9739 242.519 91.0839 244.378 91.0839C246.144 91.0839 247.363 91.9529 247.583 93.3455H249.874C249.737 90.8012 247.489 89.0107 244.41 89.0107C241.1 89.0107 238.894 90.8012 238.894 93.4921C238.894 95.7119 240.144 97.0311 242.886 97.6698L244.841 98.141C246.848 98.6122 247.73 99.3032 247.73 100.455C247.73 101.795 246.343 102.769 244.452 102.769C242.424 102.769 241.016 101.858 240.816 100.424H238.484Z" fill="white"/>
</svg>