<svg width="372" height="100" viewBox="0 0 372 100" fill="none" xmlns="http://www.w3.org/2000/svg">
<path fill-rule="evenodd" clip-rule="evenodd" d="M187.73 0.000133886C187.472 0.00327805 187.212 0.0647325 186.982 0.199523C186.523 0.468896 186.234 0.96361 186.234 1.49559V39.6296C186.234 40.0043 186.06 40.3392 185.736 40.5271C185.411 40.7155 185.015 40.7155 184.689 40.5271L178.458 36.938C177.529 36.4026 176.395 36.403 175.467 36.938L150.592 51.2944C149.662 51.8308 149.097 52.8629 149.097 53.9363V82.649C149.097 83.7216 149.663 84.7037 150.592 85.2411L175.467 99.5975C176.397 100.134 177.528 100.134 178.458 99.5975L203.332 85.2411C204.261 84.7037 204.828 83.7216 204.828 82.649V11.0665C204.828 9.97763 204.234 8.95573 203.282 8.42454L188.477 0.149685C188.245 0.0200009 187.987 -0.00264393 187.73 0.000229838V0.000133886ZM27.7158 35.8412C27.2414 35.8603 26.7958 35.9432 26.3699 36.1902L1.49546 50.5466C0.568593 51.0824 0 52.0583 0 53.1387L0.0497417 91.6715C0.0497417 92.2075 0.326246 92.7052 0.797475 92.9678C1.25935 93.2442 1.83262 93.2442 2.29293 92.9678L17.0481 84.4934C17.9828 83.9381 18.5934 82.9722 18.5934 81.9012V63.906C18.5934 62.8326 19.1581 61.8474 20.0889 61.3138L26.3698 57.675C26.8386 57.404 27.3418 57.2762 27.8652 57.2762C28.3779 57.2762 28.9049 57.4038 29.3607 57.675L35.6416 61.3138C36.5724 61.8474 37.1371 62.8326 37.1371 63.906V81.9012C37.1371 82.9722 37.7538 83.9443 38.6824 84.4934L53.4375 92.9678C53.9009 93.2442 54.4734 93.2442 54.933 92.9678C55.391 92.7052 55.6807 92.2075 55.6807 91.6715L55.7305 53.1387C55.7305 52.0583 55.1682 51.0824 54.235 50.5466L29.3606 36.1902C28.9399 35.9432 28.4923 35.8606 28.0147 35.8412H27.7156H27.7158ZM251.237 36.1902C250.717 36.1895 250.208 36.321 249.741 36.589L224.867 50.9453C223.938 51.4819 223.371 52.4641 223.371 53.5375V82.2502C223.371 83.3298 223.98 84.3088 224.917 84.8424L249.592 98.8997C250.503 99.42 251.616 99.4589 252.533 98.9491L267.487 90.6243C267.962 90.3611 268.283 89.8695 268.285 89.3283C268.288 88.7869 268.006 88.3016 267.537 88.0322L242.513 73.6758C242.045 73.4086 241.716 72.8672 241.716 72.3298V63.3571C241.716 62.8206 242.049 62.329 242.513 62.0612L250.29 57.5746C250.752 57.3069 251.32 57.3069 251.785 57.5746L259.561 62.0612C260.026 62.329 260.309 62.8206 260.309 63.3571V70.4357C260.309 70.973 260.592 71.4638 261.057 71.7316C261.523 72.0002 262.088 72.0014 262.552 71.7316L277.457 63.0581C278.382 62.5207 278.952 61.536 278.952 60.466V53.537C278.952 52.4668 278.384 51.4823 277.457 50.9448L252.732 36.5885C252.267 36.3186 251.756 36.1903 251.237 36.1897V36.1902ZM176.863 57.625C176.992 57.625 177.145 57.6569 177.261 57.724L185.786 62.6591C186.017 62.793 186.184 63.0398 186.184 63.307V73.177C186.184 73.445 186.018 73.6919 185.786 73.8251L177.261 78.7601C177.029 78.8925 176.746 78.8925 176.514 78.7601L167.99 73.8251C167.758 73.6911 167.591 73.445 167.591 73.177V63.307C167.591 63.0398 167.758 62.7937 167.99 62.6591L176.514 57.7248C176.63 57.6578 176.733 57.6259 176.863 57.6259V57.625Z" fill="white"/>
<path fill-rule="evenodd" clip-rule="evenodd" d="M325.76 35.4922C324.898 35.4922 324.06 35.6705 323.318 36.0904L299.839 49.6492C298.32 50.524 297.397 52.1775 297.397 53.9362V81.004C297.397 82.7617 298.32 84.4133 299.839 85.2908L305.97 88.8302C308.949 90.2983 310.048 90.2757 311.404 90.2757C315.815 90.2757 318.333 87.5995 318.333 82.948V56.2292C318.333 55.8515 318.006 55.5811 317.635 55.5811H314.694C314.317 55.5811 313.996 55.8515 313.996 56.2292V82.948C313.996 85.0098 311.849 87.0831 308.363 85.3408L301.983 81.6022C301.757 81.4794 301.584 81.2626 301.584 81.004V53.9362C301.584 53.6792 301.755 53.4182 301.983 53.2882L325.411 39.7792C325.631 39.6532 325.892 39.6532 326.109 39.7792L349.538 53.2882C349.761 53.4222 349.937 53.6714 349.937 53.9362V81.004C349.937 81.2626 349.807 81.5274 349.588 81.652L326.109 95.161C325.908 95.2806 325.631 95.2806 325.411 95.161L319.38 91.5719C319.2 91.4666 318.955 91.4746 318.782 91.5719C317.117 92.5158 316.804 92.6255 315.242 93.1671C314.857 93.3011 314.273 93.5096 315.442 94.164L323.318 98.7999C324.068 99.2338 324.903 99.4478 325.76 99.4478C326.63 99.4478 327.453 99.2338 328.203 98.7999L351.682 85.2908C353.201 84.4071 354.124 82.7617 354.124 81.004V53.9362C354.124 52.1775 353.201 50.5277 351.682 49.6492L328.203 36.0904C327.467 35.6705 326.623 35.4922 325.76 35.4922ZM102.439 36.0405C101.92 36.0405 101.408 36.1713 100.943 36.4392L76.069 50.7459C75.139 51.2818 74.5735 52.3153 74.5735 53.3878V82.1005C74.5735 83.1742 75.1396 84.1556 76.069 84.6927L100.943 99.049C101.873 99.5861 103.004 99.5861 103.934 99.049L128.809 84.6927C129.737 84.1556 130.304 83.1742 130.304 82.1005V53.3878C130.304 52.3138 129.739 51.2818 128.809 50.7459L103.934 36.4392C103.47 36.1713 102.957 36.0405 102.439 36.0405ZM360.604 36.1904V36.8883H362.549V42.0226H363.346V36.8883H365.34V36.1904H360.604ZM366.038 36.1904V42.0226H366.786V38.5831C366.786 38.4427 366.792 38.2257 366.786 37.9352C366.776 37.6393 366.786 37.3813 366.786 37.2371V37.0872L368.431 42.0221H369.228L370.923 37.0872C370.923 37.4011 370.881 37.7042 370.873 37.9845C370.87 38.2572 370.873 38.4621 370.873 38.5827V42.0221H371.621V36.1899H370.524L368.83 41.125L367.185 36.1899H366.038L366.038 36.1904ZM332.041 54.8338C325.356 54.8338 321.374 57.679 321.374 62.4107C321.374 67.5438 325.326 68.9541 331.742 69.5889C339.419 70.3404 340.017 71.4675 340.017 72.9786C340.017 75.5996 337.927 76.7172 332.988 76.7172C326.783 76.7172 325.419 75.1681 324.963 72.0814C324.909 71.7504 324.654 71.4832 324.315 71.4832H321.274C320.899 71.4832 320.576 71.8055 320.576 72.181C320.576 76.1322 322.726 80.8049 332.988 80.8049C340.418 80.8049 344.703 77.8887 344.703 72.7792C344.703 67.714 341.241 66.3544 334.035 65.4017C326.753 64.4382 326.059 63.9667 326.059 62.2613C326.059 60.8536 326.648 58.9711 332.041 58.9711C336.859 58.9711 338.639 60.01 339.369 63.2582C339.433 63.5635 339.702 63.8065 340.017 63.8065H343.058C343.245 63.8065 343.427 63.6917 343.556 63.5572C343.684 63.4136 343.774 63.2519 343.756 63.0588C343.285 57.4648 339.554 54.8338 332.041 54.8338ZM251.187 61.6631C251.088 61.6631 250.978 61.6631 250.888 61.7125L246.102 64.504C245.923 64.6061 245.803 64.7961 245.803 65.0025V70.4859C245.803 70.6923 245.923 70.8815 246.102 70.9844L250.888 73.726C251.067 73.8296 251.259 73.8296 251.436 73.726L256.222 70.9844C256.399 70.8823 256.521 70.6923 256.521 70.4859V65.0025C256.521 64.7961 256.399 64.6068 256.222 64.504L251.436 61.7125C251.347 61.6599 251.286 61.6631 251.187 61.6631Z" fill="#1B1817"/>
</svg>