<svg width="319" height="120" viewBox="0 0 319 120" fill="none" xmlns="http://www.w3.org/2000/svg">
<path fill-rule="evenodd" clip-rule="evenodd" d="M272.981 100.258V114.271H298.297C303.484 114.271 312.387 110.478 312.697 99.8713V94.4519C312.697 85.3939 305.265 80.0519 298.297 80.0519H285.678V73.5487H310.684V59.4584H286.684C280.49 59.4584 272.207 64.5681 272.207 74.0906V78.9681C272.207 88.4906 280.413 93.3681 286.684 93.3681C304.103 93.4455 282.503 93.3681 298.607 93.3681V100.181M137.342 96.8519C137.342 96.8519 150.89 95.6906 150.89 78.1939C150.89 60.6971 134.478 59.0713 134.478 59.0713H104.903V114.271H119.768V100.955L132.619 114.271H154.607L137.342 96.8519ZM131.613 85.5487H119.768V72.9293H131.69C131.69 72.9293 135.019 74.1681 135.019 79.2003C135.019 84.2326 131.613 85.5487 131.613 85.5487ZM187.587 59.4584H172.49C161.729 59.4584 158.09 69.2132 158.09 73.8584V114.271H173.187V104.594H187.355V114.271H201.987V73.8584C201.987 62.0906 191.303 59.4584 187.587 59.4584ZM187.355 88.9552H173.11V75.5616C173.11 75.5616 173.11 72.5423 177.832 72.5423H183.019C187.2 72.5423 187.278 75.5616 187.278 75.5616V88.9552H187.355Z" fill="white"/>
<path d="M224.594 59.4585H208.877V114.271H224.594V59.4585Z" fill="white"/>
<path fill-rule="evenodd" clip-rule="evenodd" d="M246.658 100.104V59.4585H231.019V100.104V114.271H246.658H267.793V100.104H246.658Z" fill="white"/>
<path fill-rule="evenodd" clip-rule="evenodd" d="M11.6129 114.271H72.7742C72.7742 114.271 61.0839 60.9291 99.7936 39.3292C108.232 35.2259 135.097 19.8969 179.071 52.413C180.465 51.2517 181.781 50.3227 181.781 50.3227C181.781 50.3227 141.523 10.1421 96.6968 14.6324C74.1678 16.6453 46.4516 37.1614 30.1936 64.2582C13.9355 91.355 11.6129 114.271 11.6129 114.271Z" fill="white"/>
<path fill-rule="evenodd" clip-rule="evenodd" d="M11.6129 114.271H72.7742C72.7742 114.271 61.0839 60.9291 99.7936 39.3292C108.232 35.2259 135.097 19.8969 179.071 52.413C180.465 51.2517 181.781 50.3227 181.781 50.3227C181.781 50.3227 141.523 10.1421 96.6968 14.6324C74.1678 16.6453 46.4516 37.1614 30.1936 64.2582C13.9355 91.355 11.6129 114.271 11.6129 114.271Z" fill="white"/>
<path fill-rule="evenodd" clip-rule="evenodd" d="M11.6129 114.271H72.7742C72.7742 114.271 61.0839 60.9294 99.7936 39.3294C108.232 35.2261 135.097 19.8971 179.071 52.4132C180.465 51.2519 181.781 50.3229 181.781 50.3229C181.781 50.3229 141.523 10.1423 96.6968 14.6326C74.0903 16.6455 46.3742 37.1616 30.1161 64.2584C13.8581 91.3552 11.6129 114.271 11.6129 114.271ZM139.045 18.9681L139.355 13.781C138.658 13.3939 136.723 12.4648 131.845 11.0713L131.535 16.181C134.09 17.0326 136.568 17.9616 139.045 18.9681Z" fill="white"/>
<path fill-rule="evenodd" clip-rule="evenodd" d="M131.69 35.3808L131.381 40.2583C133.936 40.3357 136.49 40.6454 139.045 41.1873L139.355 36.3873C136.723 35.8454 134.168 35.5357 131.69 35.3808ZM103.045 11.226H103.819L102.271 6.50342C99.871 6.50342 97.3936 6.65826 94.8388 6.96793L96.3097 11.5357C98.5549 11.3034 100.8 11.226 103.045 11.226ZM106.761 39.7163L108.542 45.0583C110.787 43.9744 113.032 43.0454 115.277 42.3486L113.574 37.2389C110.942 38.0131 108.697 38.8647 106.761 39.7163ZM71.613 19.355L68.1291 14.0131C66.1936 15.0195 64.1807 16.1034 62.0904 17.3421L65.6517 22.7615C67.6646 21.5228 69.6001 20.3615 71.613 19.355ZM87.4839 54.1937L91.2001 59.7679C92.5162 57.8325 94.0646 56.0518 95.7678 54.2712L92.2839 49.0066C90.5033 50.6325 88.8775 52.4131 87.4839 54.1937ZM76.2581 79.1228L82.5291 84.0776C82.8388 81.0583 83.3807 78.0389 84.1549 75.0195L78.5807 70.6066C77.5742 73.4712 76.8775 76.3357 76.2581 79.1228ZM42.3484 42.3486L36.8517 37.5486C34.8388 39.4841 32.9033 41.4195 31.1226 43.355L37.0839 48.4647C38.7097 46.3744 40.4904 44.2841 42.3484 42.3486ZM18.9678 76.955L10.0646 73.7034C8.5936 77.0324 6.9678 80.9034 6.1936 82.9937L15.0968 86.2454C16.1033 83.6131 17.7291 79.8195 18.9678 76.955ZM75.0968 98.7873C75.2517 102.891 75.6388 106.22 76.0259 108.542L85.3162 111.871C84.6194 108.852 83.9226 105.445 83.4581 101.807L75.0968 98.7873Z" fill="white"/>
</svg>