<svg width="341" height="100" viewBox="0 0 341 100" fill="none" xmlns="http://www.w3.org/2000/svg">
<path d="M50.8839 59.4699C55.9046 59.4699 59.9748 55.3997 59.9748 50.379C59.9748 45.3582 55.9046 41.2881 50.8839 41.2881C45.8631 41.2881 41.793 45.3582 41.793 50.379C41.793 55.3997 45.8631 59.4699 50.8839 59.4699Z" fill="white"/>
<path d="M50.8838 71.2123C39.9833 71.4867 29.1103 69.9944 18.6868 66.7931C13.88 65.2488 9.38954 62.8539 5.42923 59.7224C1.89387 56.6921 0.126221 53.5355 0.126221 50.379C0.126221 44.3184 6.69188 38.5103 17.803 34.5962C28.5345 31.1767 39.748 29.5138 51.01 29.6719C63.1313 29.6719 74.7474 31.3134 83.7121 34.4699C89.0151 36.2376 93.4343 38.6366 96.5909 41.2881C100 44.1921 101.768 47.2224 101.768 50.379C101.768 56.5659 94.4444 63.0053 82.5757 66.9194C72.2886 69.9402 61.6038 71.3876 50.8838 71.2123ZM50.8838 34.0911C39.1413 34.0911 27.6515 35.7325 19.0656 38.7628C11.7424 41.2881 4.29287 45.9598 4.29287 50.379C4.29287 52.1467 5.68176 54.2931 8.08075 56.4396C10.9848 58.8386 15.0252 61.1113 19.9494 62.7527C29.9264 65.796 40.3306 67.2031 50.7575 66.9194C62.2474 66.9194 72.9798 65.5305 81.0606 62.7527C92.298 59.0911 97.3484 53.7881 97.3484 50.379C97.3484 48.7376 96.0858 46.5911 93.6868 44.6972C90.2386 42.0239 86.3503 39.973 82.1969 38.6366C72.0628 35.4859 61.4955 33.9519 50.8838 34.0911Z" fill="white"/>
<path d="M30.303 95.707C28.409 95.707 26.7676 95.3282 25.505 94.5706C20.3282 91.5403 18.5605 82.9545 20.707 71.4646C23.1042 60.464 27.2839 49.9294 33.0808 40.2777C38.531 30.5796 45.4766 21.8018 53.6615 14.2676C57.8282 10.606 62.1212 7.95445 65.909 6.56556C70.0757 5.05041 73.7373 5.05041 76.3888 6.56556C81.8181 9.72213 83.5858 19.1918 81.0606 31.4393C78.5965 41.8432 74.5512 51.8076 69.0656 60.9848C63.8393 70.5504 57.151 79.241 49.2424 86.7423C44.9494 90.5302 40.5302 93.308 36.4898 94.6969C33.9646 95.3282 32.0706 95.707 30.303 95.707ZM36.6161 42.2979C31.098 51.535 27.0913 61.5945 24.7474 72.0959C23.3585 79.6716 23.611 88.3838 27.5252 90.6565C30.4292 92.2979 37.4999 90.7827 46.0858 83.207C52.3989 77.6514 58.9646 69.1918 65.0252 58.5858C70.3223 49.8084 74.2401 40.2696 76.6414 30.3029C77.7334 25.8003 77.9902 21.1356 77.3989 16.5403C76.8939 13.2575 75.7575 10.9847 74.1161 10.1009C72.601 9.21706 70.2019 9.34334 67.2979 10.3534C63.2749 12.04 59.5621 14.3871 56.3131 17.2979C48.5259 24.5917 41.8853 33.0202 36.6161 42.2979Z" fill="white"/>
<path d="M71.4646 95.7069C66.5404 95.7069 60.2273 92.6766 53.7879 87.121C45.4596 79.5597 38.4225 70.6887 32.9545 60.8584C26.8939 50.3786 22.4747 39.3938 20.707 30.0503C19.5707 24.621 19.4444 19.5705 20.202 15.5301C20.9596 11.1109 22.7273 7.95436 25.3788 6.43921C30.8081 3.28264 39.899 6.56548 49.2424 14.7725C56.9361 22.1671 63.5271 30.629 68.8131 39.8988C74.5527 49.1719 78.7327 59.3234 81.1868 69.9493C82.3232 75.5048 82.4495 80.8079 81.6919 84.9746C80.8081 89.52 78.9141 92.6766 76.2626 94.318C74.8539 95.2841 73.1716 95.7711 71.4646 95.7069ZM36.7424 58.7119C42.5505 68.8129 49.8737 78.0301 56.6919 83.8382C62.6262 88.8887 70.202 93.0554 74.1162 90.7826C77.0202 89.1412 79.1666 82.1968 76.8939 71.0857C74.4975 60.9184 70.4907 51.1997 65.0252 42.2978C60.0681 33.3495 53.7656 25.2159 46.3384 18.1816C42.9447 15.0215 39.0099 12.4981 34.7222 10.7321C31.6919 9.59576 29.0404 9.46952 27.5252 10.3534C26.0101 11.2372 25 13.3836 24.3686 16.4139C23.8 20.7042 23.9709 25.0602 24.8737 29.2927C26.6414 38.1311 30.8081 48.6109 36.7424 58.7119Z" fill="white"/>
<path d="M152.525 82.4496L135.985 56.5658H122.98V82.4496H114.899V17.4243H141.035C152.904 17.4243 161.364 25.0001 161.364 36.995C161.364 48.7375 153.409 55.1769 144.444 55.9344L161.995 82.4496H152.525ZM153.03 36.995C153.03 29.6718 147.727 24.6213 140.025 24.6213H122.98V49.495H140.025C147.727 49.495 153.03 44.3183 153.03 36.995Z" fill="white"/>
<path d="M169.192 58.8385C169.192 45.2021 178.914 34.2173 192.424 34.2173C206.692 34.2173 215.025 45.3284 215.025 59.4698V61.3638H176.894C177.525 70.2021 183.712 77.6516 193.813 77.6516C199.116 77.6516 204.672 75.5052 208.333 71.7173L211.869 76.5153C209.401 78.9136 206.473 80.7876 203.261 82.0244C200.05 83.2613 196.621 83.8354 193.182 83.7123C179.293 83.586 169.192 73.6112 169.192 58.8385ZM192.298 40.2779C182.197 40.2779 177.273 48.7375 176.894 55.9345H207.828C207.702 48.8638 203.03 40.2779 192.298 40.2779Z" fill="white"/>
<path d="M253.409 82.4496V77.1466C251.427 79.3048 249.001 81.0089 246.299 82.1421C243.597 83.2754 240.681 83.811 237.753 83.7122C229.798 83.7122 221.212 78.4092 221.212 68.0557C221.212 57.5759 229.672 52.5254 237.753 52.5254C244.192 52.5254 249.495 54.5456 253.409 58.9648V50.5052C253.409 44.192 248.359 40.5304 241.54 40.5304C235.859 40.5304 231.313 42.5506 227.146 47.0961L223.737 42.0456C228.788 36.7426 234.849 34.2173 242.551 34.2173C252.525 34.2173 260.732 38.7627 260.732 50.1264V82.4496H253.409ZM253.409 72.4748V63.6365C250.631 59.7223 245.581 57.8284 240.404 57.8284C233.586 57.8284 228.788 62.1213 228.788 68.1819C228.788 74.1163 233.586 78.4092 240.404 78.4092C245.581 78.4092 250.505 76.389 253.409 72.4748Z" fill="white"/>
<path d="M267.677 58.8382C267.677 44.9493 277.146 34.217 291.162 34.217C299.747 34.217 304.798 37.7524 308.46 42.4241L303.535 46.9696C302.227 45.0036 300.439 43.4037 298.34 42.3212C296.241 41.2386 293.901 40.7091 291.54 40.7827C281.439 40.7827 275.253 48.4847 275.253 58.9645C275.253 69.4443 281.439 77.1463 291.54 77.1463C296.465 77.1463 300.379 75.2524 303.535 70.9595L308.46 75.5049C306.472 78.1884 303.854 80.341 300.837 81.7724C297.82 83.2038 294.497 83.87 291.162 83.712C277.146 83.5857 267.677 72.8534 267.677 58.8382ZM320.202 72.6009V41.7928H312.374V35.3534H320.202V22.4746H327.525V35.3534H337.121V41.7928H327.525V71.0857C327.525 74.6211 329.04 77.1463 332.323 77.1463C334.343 77.1463 336.364 76.2625 337.247 75.2524L339.394 80.6817C338.194 81.7464 336.796 82.5625 335.278 83.0826C333.761 83.6028 332.156 83.8167 330.556 83.712C323.611 83.5857 320.202 79.6716 320.202 72.6009Z" fill="white"/>
</svg>