<svg width="353" height="100" viewBox="0 0 353 100" fill="none" xmlns="http://www.w3.org/2000/svg">
<path d="M76.0259 18.94C75.9577 18.4433 75.5238 18.1677 75.1636 18.1377C74.8062 18.1077 67.8039 18.0013 67.8039 18.0013C67.8039 18.0013 61.9477 12.3143 61.3692 11.7358C60.7908 11.1573 59.661 11.332 59.2216 11.4629C59.2162 11.4657 58.122 11.804 56.28 12.3744C55.9716 11.3756 55.5185 10.1476 54.8718 8.91418C52.7871 4.93551 49.7334 2.83156 46.0439 2.82611C46.0385 2.82611 46.0357 2.82611 46.0303 2.82611C45.7738 2.82611 45.52 2.85067 45.2636 2.87249C45.1544 2.74151 45.0452 2.61326 44.9307 2.48772C43.3233 0.768549 41.2631 -0.06921 38.7934 0.00446905C34.0289 0.140912 29.2834 3.582 25.4357 9.69464C22.7287 13.9953 20.6684 19.3985 20.0844 23.5818C14.613 25.2764 10.7872 26.4607 10.7026 26.488C7.94097 27.3557 7.85366 27.4403 7.49344 30.0438C7.22602 32.0112 0 87.8874 0 87.8874L60.5561 98.3607L86.8021 91.8359C86.8021 91.8359 76.0941 19.4367 76.0259 18.94ZM53.2482 13.3131C51.8538 13.7443 50.2682 14.2355 48.549 14.7676C48.5136 12.3553 48.227 8.99879 47.1028 6.098C50.7185 6.78295 52.4977 10.8735 53.2482 13.3131ZM45.3808 15.75C42.2072 16.7323 38.7443 17.8048 35.2705 18.88C36.2474 15.1387 38.1003 11.4138 40.3762 8.97149C41.2221 8.06279 42.4064 7.05038 43.809 6.47185C45.127 9.22254 45.4136 13.1166 45.3808 15.75ZM38.8889 3.17539C40.0077 3.15084 40.9492 3.39644 41.7543 3.92584C40.4662 4.59441 39.2218 5.55497 38.0539 6.80751C35.0275 10.0549 32.708 15.095 31.7829 19.9579C28.8985 20.8502 26.0769 21.7262 23.479 22.5285C25.1192 14.874 31.5346 3.38825 38.8889 3.17539Z" fill="#2F2825"/>
<path d="M75.1663 18.1405C74.8089 18.1105 67.8066 18.0041 67.8066 18.0041C67.8066 18.0041 61.9505 12.3171 61.372 11.7386C61.1564 11.523 60.8645 11.4111 60.5587 11.3647L60.5615 98.358L86.8049 91.8361C86.8049 91.8361 76.0969 19.4395 76.0287 18.9428C75.9604 18.4461 75.5238 18.1705 75.1663 18.1405Z" fill="#1B1817"/>
<path d="M46.0111 31.6346L42.9631 43.0384C42.9631 43.0384 39.563 41.4912 35.5325 41.7449C29.6216 42.1189 29.5589 45.8464 29.619 46.7825C29.941 51.8826 43.3587 52.9961 44.112 64.943C44.7041 74.3412 39.1262 80.7703 31.0898 81.2779C21.4433 81.8864 16.1329 76.1967 16.1329 76.1967L18.1769 67.5026C18.1769 67.5026 23.5226 71.5359 27.8015 71.2657C30.5959 71.0884 31.5946 68.8153 31.4936 67.2079C31.0734 60.5549 20.147 60.9479 19.4567 50.0161C18.8754 40.8172 24.9172 31.4954 38.2475 30.6549C43.3833 30.3248 46.0111 31.6346 46.0111 31.6346Z" fill="white"/>
<path d="M121.364 55.5143C118.346 53.8768 116.795 52.4964 116.795 50.599C116.795 48.1848 118.95 46.6338 122.314 46.6338C126.231 46.6338 129.727 48.2713 129.727 48.2713L132.486 39.8213C132.486 39.8213 129.949 37.8374 122.485 37.8374C112.097 37.8374 104.897 43.7864 104.897 52.1499C104.897 56.8918 108.259 60.5133 112.744 63.0981C116.365 65.1659 117.659 66.633 117.659 68.7874C117.659 71.0286 115.848 72.8392 112.487 72.8392C107.477 72.8392 102.745 70.2517 102.745 70.2517L99.8142 78.7017C99.8142 78.7017 104.185 81.633 111.539 81.633C122.23 81.633 129.904 76.374 129.904 66.89C129.901 61.8071 126.022 58.1856 121.364 55.5143Z" fill="white"/>
<path d="M163.956 37.7532C158.696 37.7532 154.558 40.2542 151.37 44.0462L151.196 43.9594L155.765 20.0791H143.867L132.315 80.8586H144.213L148.179 60.0827C149.729 52.2363 153.781 47.4104 157.576 47.4104C160.247 47.4104 161.284 49.2211 161.284 51.8086C161.284 53.4461 161.111 55.4301 160.767 57.0676L156.285 80.8614H168.184L172.838 56.2907C173.356 53.7032 173.702 50.6016 173.702 48.5309C173.697 41.805 170.162 37.7532 163.956 37.7532Z" fill="white"/>
<path d="M200.595 37.7534C186.282 37.7534 176.802 50.6857 176.802 65.0821C176.802 74.3062 182.49 81.7196 193.182 81.7196C207.234 81.7196 216.718 69.1339 216.718 54.391C216.718 45.857 211.716 37.7534 200.595 37.7534ZM194.733 72.5847C190.68 72.5847 188.956 69.1365 188.956 64.8249C188.956 58.0151 192.492 46.8937 198.957 46.8937C203.182 46.8937 204.559 50.5151 204.559 54.05C204.559 61.3767 201.028 72.5847 194.733 72.5847Z" fill="white"/>
<path d="M247.151 37.7534C239.12 37.7534 234.562 44.8231 234.562 44.8231H234.392L235.082 38.4436H224.564C224.048 42.7552 223.097 49.3052 222.151 54.2205L213.874 97.7562H225.772L229.046 80.1687H229.307C229.307 80.1687 231.748 81.7196 236.29 81.7196C250.256 81.7196 259.393 67.4098 259.393 52.9241C259.393 44.9098 255.857 37.7534 247.151 37.7534ZM235.771 72.7552C232.682 72.7552 230.854 71.0311 230.854 71.0311L232.838 59.9098C234.218 52.4964 238.097 47.5811 242.236 47.5811C245.857 47.5811 246.977 50.9428 246.977 54.1339C246.977 61.807 242.408 72.7552 235.771 72.7552Z" fill="white"/>
<path d="M276.377 20.6831C272.585 20.6831 269.567 23.701 269.567 27.5795C269.567 31.1144 271.808 33.5287 275.17 33.5287H275.343C279.051 33.5287 282.239 31.0277 282.326 26.6323C282.326 23.1839 279.998 20.6831 276.377 20.6831Z" fill="white"/>
<path d="M259.739 80.859H271.634L279.741 38.7036H267.756L259.739 80.859Z" fill="white"/>
<path d="M310.002 38.6169H301.725L302.154 36.633C302.844 32.5812 305.259 28.9597 309.225 28.9597C311.341 28.9597 313.016 29.5633 313.016 29.5633L315.344 20.2527C315.344 20.2527 313.275 19.2188 308.877 19.2188C304.652 19.2188 300.431 20.4258 297.239 23.1838C293.187 26.6322 291.29 31.6312 290.343 36.633L290 38.6169H284.48L282.756 47.584H288.275L281.982 80.8617H293.88L300.174 47.584H308.364L310.002 38.6169Z" fill="white"/>
<path d="M338.623 38.7035C338.623 38.7035 331.185 57.4412 327.846 67.6695H327.672C327.446 64.3756 324.741 38.7035 324.741 38.7035H312.239L319.398 77.4105C319.572 78.2713 319.485 78.791 319.139 79.3945C317.757 82.0659 315.431 84.6535 312.672 86.5508C310.431 88.1882 307.931 89.2222 305.949 89.9123L309.225 99.9999C311.639 99.483 316.638 97.499 320.862 93.5338C326.295 88.4481 331.293 80.6017 336.466 69.9105L351.036 38.7007H338.623V38.7035Z" fill="white"/>
</svg>