<svg width="30" height="31" viewBox="0 0 30 31" fill="none" xmlns="http://www.w3.org/2000/svg">
<mask id="path-1-inside-1_239_120" fill="white">
<path fill-rule="evenodd" clip-rule="evenodd" d="M14.926 18.584C14.417 18.8779 13.8795 19.128 13.3187 19.3292C13.2314 18.8433 13.1858 18.3429 13.1858 17.8319C13.1858 17.7621 13.1866 17.6924 13.1883 17.623C13.8181 17.8561 14.4029 18.1819 14.926 18.584ZM19.9051 9.59428C19.9093 9.71424 19.9115 9.83474 19.9115 9.95575C19.9115 13.6439 17.906 16.8637 14.926 18.584C16.5046 19.7974 17.522 21.7046 17.522 23.8495C17.522 24.2843 17.4802 24.7092 17.4004 25.1207C15.2945 23.9067 13.764 21.8063 13.3187 19.3292C12.2682 19.7061 11.136 19.9115 9.95575 19.9115C8.61863 19.9115 7.34307 19.6479 6.17822 19.1698C7.38036 17.9608 9.0452 17.2124 10.8848 17.2124C11.6947 17.2124 12.4708 17.3574 13.1883 17.623C13.2852 13.6511 16.1367 10.3623 19.9051 9.59428ZM19.9051 9.59428C19.7148 4.26331 15.3332 0 9.95575 0C4.45734 0 0 4.45734 0 9.95575C0 14.117 2.55304 17.682 6.17822 19.1698C4.98503 20.3698 4.24768 22.0236 4.24768 23.8495C4.24768 27.5151 7.21924 30.4867 10.8848 30.4867C14.1157 30.4867 16.8074 28.1782 17.4004 25.1207C18.6345 25.832 20.0662 26.239 21.5929 26.239C26.236 26.239 30 22.475 30 17.8319C30 13.1888 26.236 9.4248 21.5929 9.4248C21.0148 9.4248 20.4503 9.48315 19.9051 9.59428Z"/>
</mask>
<path fill-rule="evenodd" clip-rule="evenodd" d="M14.926 18.584C14.417 18.8779 13.8795 19.128 13.3187 19.3292C13.2314 18.8433 13.1858 18.3429 13.1858 17.8319C13.1858 17.7621 13.1866 17.6924 13.1883 17.623C13.8181 17.8561 14.4029 18.1819 14.926 18.584ZM19.9051 9.59428C19.9093 9.71424 19.9115 9.83474 19.9115 9.95575C19.9115 13.6439 17.906 16.8637 14.926 18.584C16.5046 19.7974 17.522 21.7046 17.522 23.8495C17.522 24.2843 17.4802 24.7092 17.4004 25.1207C15.2945 23.9067 13.764 21.8063 13.3187 19.3292C12.2682 19.7061 11.136 19.9115 9.95575 19.9115C8.61863 19.9115 7.34307 19.6479 6.17822 19.1698C7.38036 17.9608 9.0452 17.2124 10.8848 17.2124C11.6947 17.2124 12.4708 17.3574 13.1883 17.623C13.2852 13.6511 16.1367 10.3623 19.9051 9.59428ZM19.9051 9.59428C19.7148 4.26331 15.3332 0 9.95575 0C4.45734 0 0 4.45734 0 9.95575C0 14.117 2.55304 17.682 6.17822 19.1698C4.98503 20.3698 4.24768 22.0236 4.24768 23.8495C4.24768 27.5151 7.21924 30.4867 10.8848 30.4867C14.1157 30.4867 16.8074 28.1782 17.4004 25.1207C18.6345 25.832 20.0662 26.239 21.5929 26.239C26.236 26.239 30 22.475 30 17.8319C30 13.1888 26.236 9.4248 21.5929 9.4248C21.0148 9.4248 20.4503 9.48315 19.9051 9.59428Z" fill="white"/>
<path d="M15.0074 24.0354C15.8521 23.7323 16.6608 23.3559 17.4258 22.9143L12.4262 14.2538C12.1731 14.3999 11.9069 14.5236 11.63 14.623L15.0074 24.0354ZM8.18579 17.8319C8.18579 18.6409 8.25803 19.4373 8.39762 20.2138L18.2399 18.4445C18.2047 18.2493 18.1858 18.0449 18.1858 17.8319H8.18579ZM8.18982 17.5011C8.18714 17.6111 8.18579 17.7214 8.18579 17.8319H18.1858C18.1858 17.8027 18.1861 17.7737 18.1868 17.7449L8.18982 17.5011ZM11.453 22.3122C11.6045 22.3683 11.7481 22.4477 11.8789 22.5483L17.973 14.6197C17.0576 13.9161 16.0317 13.3439 14.9237 12.9338L11.453 22.3122ZM24.9115 9.95575C24.9115 9.77532 24.9083 9.59535 24.9019 9.41592L14.9082 9.77264C14.9104 9.83313 14.9115 9.89417 14.9115 9.95575H24.9115ZM17.4258 22.9143C21.8893 20.3375 24.9115 15.5025 24.9115 9.95575H14.9115C14.9115 11.7853 13.9226 13.3899 12.4262 14.2538L17.4258 22.9143ZM11.879 22.5483C12.2793 22.856 12.522 23.3234 12.522 23.8495H22.522C22.522 20.0859 20.7299 16.7387 17.973 14.6197L11.879 22.5483ZM12.522 23.8495C12.522 23.9631 12.5112 24.0693 12.4919 24.1686L22.309 26.0727C22.4493 25.3492 22.522 24.6055 22.522 23.8495H12.522ZM19.8975 20.7888C19.0341 20.2912 18.4177 19.4336 18.2399 18.4445L8.39762 20.2138C9.11044 24.1791 11.5549 27.5223 14.9034 29.4525L19.8975 20.7888ZM11.63 14.623C11.1136 14.8083 10.5522 14.9115 9.95575 14.9115V24.9115C11.7197 24.9115 13.4229 24.604 15.0074 24.0354L11.63 14.623ZM9.95575 14.9115C9.28095 14.9115 8.64951 14.7794 8.0766 14.5442L4.27983 23.7954C6.03664 24.5164 7.95631 24.9115 9.95575 24.9115V14.9115ZM9.72382 22.6953C10.0259 22.3914 10.4298 22.2124 10.8848 22.2124V12.2124C7.66061 12.2124 4.73479 13.5302 2.63262 15.6444L9.72382 22.6953ZM10.8848 22.2124C11.0937 22.2124 11.2826 22.2491 11.453 22.3122L14.9237 12.9338C13.6589 12.4657 12.2958 12.2124 10.8848 12.2124V22.2124ZM18.9066 4.69499C12.8943 5.9203 8.34449 11.1585 8.18982 17.5011L18.1868 17.7449C18.2259 16.1437 19.3791 14.8042 20.9035 14.4936L18.9066 4.69499ZM9.95575 5C12.6315 5 14.8137 7.12227 14.9082 9.77261L24.9019 9.41595C24.616 1.40435 18.0349 -5 9.95575 -5V5ZM5 9.95575C5 7.21877 7.21877 5 9.95575 5V-5C1.69592 -5 -5 1.69592 -5 9.95575H5ZM8.0766 14.5442C6.26262 13.7998 5 12.0193 5 9.95575H-5C-5 16.2148 -1.15654 21.5643 4.27983 23.7954L8.0766 14.5442ZM9.24768 23.8495C9.24768 23.3977 9.42415 22.9967 9.72382 22.6953L2.63262 15.6444C0.545907 17.743 -0.752319 20.6495 -0.752319 23.8495H9.24768ZM10.8848 25.4867C9.98067 25.4867 9.24768 24.7537 9.24768 23.8495H-0.752319C-0.752319 30.2766 4.45782 35.4867 10.8848 35.4867V25.4867ZM12.4919 24.1686C12.3461 24.9203 11.6762 25.4867 10.8848 25.4867V35.4867C16.5553 35.4867 21.2687 31.4361 22.309 26.0727L12.4919 24.1686ZM21.5929 21.239C20.9658 21.239 20.3924 21.0741 19.8974 20.7888L14.9034 29.4525C16.8765 30.5899 19.1665 31.239 21.5929 31.239V21.239ZM25 17.8319C25 19.7136 23.4745 21.239 21.5929 21.239V31.239C28.9974 31.239 35 25.2364 35 17.8319H25ZM21.5929 14.4248C23.4745 14.4248 25 15.9502 25 17.8319H35C35 10.4274 28.9974 4.4248 21.5929 4.4248V14.4248ZM20.9035 14.4936C21.1221 14.449 21.3521 14.4248 21.5929 14.4248V4.4248C20.6775 4.4248 19.7786 4.51728 18.9066 4.69499L20.9035 14.4936Z" fill="white" mask="url(#path-1-inside-1_239_120)"/>
</svg>