<svg width="30" height="31" viewBox="0 0 30 31" fill="none" xmlns="http://www.w3.org/2000/svg">
<path fill-rule="evenodd" clip-rule="evenodd" d="M14.926 18.584C14.417 18.8779 13.8795 19.128 13.3187 19.3292C13.2314 18.8433 13.1858 18.3429 13.1858 17.8319C13.1858 17.7621 13.1866 17.6924 13.1883 17.623C13.8181 17.8561 14.4029 18.1819 14.926 18.584ZM19.9051 9.59428C19.9093 9.71424 19.9115 9.83474 19.9115 9.95575C19.9115 13.6439 17.906 16.8637 14.926 18.584C16.5046 19.7974 17.522 21.7046 17.522 23.8495C17.522 24.2843 17.4802 24.7092 17.4004 25.1207C15.2945 23.9067 13.764 21.8063 13.3187 19.3292C12.2682 19.7061 11.136 19.9115 9.95575 19.9115C8.61863 19.9115 7.34307 19.6479 6.17822 19.1698C7.38036 17.9608 9.0452 17.2124 10.8848 17.2124C11.6947 17.2124 12.4708 17.3574 13.1883 17.623C13.2852 13.6511 16.1367 10.3623 19.9051 9.59428ZM19.9051 9.59428C19.7148 4.26331 15.3332 0 9.95575 0C4.45734 0 0 4.45734 0 9.95575C0 14.117 2.55304 17.682 6.17822 19.1698C4.98503 20.3698 4.24768 22.0236 4.24768 23.8495C4.24768 27.5151 7.21924 30.4867 10.8848 30.4867C14.1157 30.4867 16.8074 28.1782 17.4004 25.1207C18.6345 25.832 20.0662 26.239 21.5929 26.239C26.236 26.239 30 22.475 30 17.8319C30 13.1888 26.236 9.4248 21.5929 9.4248C21.0148 9.4248 20.4503 9.48315 19.9051 9.59428Z" fill="#fff"/>
</svg>